<svg width="119" height="62" viewBox="0 0 119 62" fill="none" xmlns="http://www.w3.org/2000/svg">
<path d="M42.2992 36.8667C44.1459 33.6272 45.047 29.9294 44.899 26.198C44.7509 22.4667 43.5598 18.8529 41.4624 15.7717C39.365 12.6905 36.4462 10.2668 33.0414 8.7789C29.6365 7.29097 25.8835 6.79915 22.2133 7.3599C18.5431 7.92064 15.1045 9.51123 12.2923 11.949C9.48013 14.3868 7.4084 17.573 6.315 21.1417C5.2216 24.7104 5.15085 28.5169 6.11087 32.1243C7.07089 35.7316 9.02277 38.9934 11.7424 41.5353C11.8435 35.8784 12.021 29.5519 12.323 27.1959C12.8912 22.7654 17.0256 21.0591 22.4753 16.4191C24.0864 15.0439 26.6072 14.6917 29.8874 17.0279C33.3697 19.5079 36.8199 20.9463 37.9256 22.0809C39.3753 23.5689 38.7133 24.9143 37.3413 24.9143C35.9694 24.9143 33.3462 23.0952 31.5478 22.2309C25.679 19.3963 25.1785 19.1743 22.4383 22.2843C19.5292 25.5901 17.8022 28.7819 21.6136 30.7249C24.8802 32.389 28.2195 28.8501 30.2904 26.3639C32.1173 24.1777 34.5124 24.3092 35.3444 25.3607C36.1765 26.4122 34.3299 27.0793 33.0146 28.4272C30.426 31.087 31.2026 31.7566 29.1798 35.2385C27.5243 38.0905 25.2513 37.8983 23.1483 40.0088C22.3458 40.8099 22.1757 43.7288 22.2226 46.6292C23.2015 46.7811 24.1905 46.8565 25.181 46.8549C28.6368 46.8564 32.032 45.9425 35.0251 44.205L41.7334 45.3594C41.7334 45.3594 43.8153 45.5987 43.3038 42.8422C43.0696 41.6022 42.6332 38.93 42.2992 36.8667ZM34.8846 18.6387L29.1749 15.4903C30.3595 15.6143 30.8217 15.6143 31.6821 15.7631C32.4131 15.8871 34.7749 15.9689 35.3444 16.9882C35.9139 18.0075 34.8846 18.6387 34.8846 18.6387Z" fill="#F16623"/>
<path d="M74.853 27.9136L74.4351 33.6883L74.4203 33.9066C74.3789 34.1097 74.2653 34.2906 74.1008 34.4154C73.9362 34.5403 73.7321 34.6005 73.5266 34.5848L71.6431 34.4484C71.5318 34.4409 71.4232 34.4113 71.3233 34.3615C71.2234 34.3116 71.1343 34.2425 71.061 34.1579C70.9877 34.0734 70.9317 33.9752 70.8963 33.8688C70.8608 33.7625 70.8465 33.6502 70.8542 33.5383L71.2646 27.8008C71.3497 26.6364 70.5485 25.549 69.3971 25.3952C69.1028 25.3548 68.8033 25.3755 68.5171 25.456C68.231 25.5365 67.9643 25.6752 67.7335 25.8634C67.5027 26.0516 67.3127 26.2855 67.1753 26.5504C67.0378 26.8154 66.9558 27.1059 66.9343 27.404L66.5102 33.3163C66.4739 33.5235 66.3626 33.7099 66.1978 33.8395C66.033 33.969 65.8264 34.0327 65.6178 34.0182L63.7293 33.8805C63.5198 33.8658 63.3232 33.773 63.178 33.6203C63.0328 33.4676 62.9494 33.2659 62.9441 33.0547L63.2584 28.6192C63.257 28.6516 63.2537 28.6839 63.2486 28.7159L63.2683 28.5064L64.0991 16.864C64.1305 16.6517 64.2404 16.4591 64.4067 16.3247C64.573 16.1902 64.7836 16.1238 64.9965 16.1386L66.8825 16.2762C67.0905 16.29 67.286 16.3809 67.4311 16.5314C67.5762 16.682 67.6605 16.8814 67.6677 17.0909L67.2868 22.4229C67.7651 22.1836 68.3025 21.8624 68.8129 21.7298C72.2138 20.8382 75.1858 23.276 74.853 27.9136Z" fill="#135934"/>
<path d="M88.0426 27.404C88.0426 27.3705 88.0426 27.3358 88.0426 27.3048L88.0562 27.5169V27.5342L88.5061 33.6685L88.5209 33.8929C88.5099 34.0889 88.4316 34.2748 88.2994 34.4191C88.1672 34.5634 87.9893 34.6571 87.7961 34.6841H87.6975H87.6864L85.936 34.8155L85.7695 34.8267C85.5766 34.8228 85.3908 34.7525 85.2432 34.6275C85.0956 34.5025 84.9951 34.3303 84.9584 34.1397C84.9571 34.1298 84.9571 34.1198 84.9584 34.1099L84.9474 33.9785L84.8919 33.2171C84.3101 34.2786 83.5852 34.8291 83.1057 35.0288C79.87 36.4101 77.0237 34.4261 76.6798 29.7848L76.2595 24.0002L76.241 23.808C76.2494 23.6016 76.3323 23.4054 76.4741 23.2559C76.6158 23.1065 76.8068 23.014 77.0114 22.9958H77.0348L78.7914 22.8656L79.0182 22.847C79.2059 22.8607 79.3837 22.9366 79.5238 23.063C79.6639 23.1894 79.7584 23.3589 79.7923 23.5451C79.7923 23.5724 79.8009 23.6022 79.8034 23.6307L80.2311 29.3781C80.3174 30.5425 81.2678 31.501 82.4278 31.4861C82.7256 31.4847 83.0199 31.4217 83.2925 31.301C83.5651 31.1802 83.8101 31.0044 84.0122 30.7843C84.2143 30.5642 84.3692 30.3047 84.4673 30.0218C84.5654 29.7389 84.6046 29.4388 84.5825 29.14L84.4851 27.8008L84.1572 23.4149L84.1424 23.2265C84.1429 23.224 84.1429 23.2215 84.1424 23.219C84.1504 23.0124 84.2331 22.8159 84.3749 22.6663C84.5168 22.5168 84.7081 22.4245 84.9128 22.4068H84.9313L86.6928 22.2741L86.9159 22.2568C87.1048 22.2686 87.2844 22.3436 87.426 22.4698C87.5676 22.5961 87.6632 22.7664 87.6975 22.9537C87.6975 22.9847 87.7049 23.0144 87.7085 23.0429V23.0863L88.0303 27.28L88.0426 27.404Z" fill="#135934"/>
<path d="M103.138 25.8639C102.768 25.0587 102.245 24.3338 101.6 23.7299C100.957 23.1297 100.203 22.6635 99.3807 22.3584C98.5655 22.057 97.6975 21.927 96.8303 21.9765C95.5853 22.0477 94.3854 22.4711 93.369 23.1979V23.188C93.3347 23.0117 93.2457 22.851 93.1148 22.7288C92.9839 22.6067 92.8178 22.5296 92.6405 22.5085C92.611 22.5046 92.5814 22.5025 92.5517 22.5023L90.6066 22.532C90.4046 22.5419 90.2129 22.6243 90.0661 22.7642C89.9193 22.9041 89.8272 23.0923 89.8066 23.2946C89.8041 23.326 89.8041 23.3575 89.8066 23.3889L90.0469 39.4717C90.0481 39.5042 90.0518 39.5365 90.058 39.5684C90.0857 39.7746 90.1876 39.9634 90.3443 40.0991C90.501 40.2348 90.7018 40.3081 90.9086 40.305L92.7921 40.2789C93.0019 40.2766 93.2033 40.1956 93.357 40.0518C93.5106 39.908 93.6054 39.7118 93.6229 39.5014C93.6229 39.4952 93.6229 39.4853 93.6229 39.4804L93.5329 34.1C93.846 34.3098 94.1759 34.4931 94.5191 34.6481C95.3094 35.0059 96.1614 35.206 97.0276 35.2371C97.9159 35.2709 98.8015 35.118 99.6277 34.7881C100.454 34.4582 101.203 33.9587 101.826 33.3213C102.457 32.6821 102.953 31.9206 103.282 31.0831C103.607 30.2451 103.763 29.3508 103.742 28.4518C103.716 27.557 103.511 26.6767 103.138 25.8639ZM99.7234 28.52C99.714 29.2853 99.4462 30.0247 98.9641 30.6168C98.4648 31.2217 97.7577 31.6156 96.9832 31.7204C96.5689 31.7744 96.1478 31.7319 95.7524 31.5962C95.3571 31.4606 94.9979 31.2354 94.7027 30.938C94.4015 30.6332 94.1723 30.264 94.0322 29.858C93.8882 29.4566 93.8091 29.0346 93.798 28.608C93.7875 28.1796 93.8411 27.752 93.957 27.3395C94.0769 26.9184 94.292 26.5309 94.5856 26.2074C94.8812 25.8893 95.2444 25.6426 95.6482 25.4857C96.0413 25.3364 96.4615 25.273 96.8809 25.2997C97.2828 25.3276 97.6751 25.4359 98.0349 25.6181C98.3947 25.8004 98.7148 26.053 98.9764 26.3612C99.4764 26.9664 99.7417 27.7333 99.7234 28.52Z" fill="#135934"/>
<path d="M61.2824 33.6176C61.2824 33.6462 61.2689 33.6809 61.2627 33.7119C61.2181 33.875 61.1303 34.0228 61.0088 34.1397C60.9311 34.1967 60.851 34.2488 60.7684 34.3021C59.7293 34.9778 58.5278 35.358 57.2913 35.4022C56.0547 35.4464 54.8294 35.1531 53.7452 34.5533C52.661 33.9536 51.7585 33.0698 51.1333 31.9957C50.5081 30.9216 50.1836 29.6973 50.1943 28.4527C50.2049 27.2081 50.5503 25.9897 51.1938 24.9266C51.8373 23.8635 52.7549 22.9955 53.8492 22.4146C54.9435 21.8337 56.1737 21.5617 57.4092 21.6273C58.6448 21.693 59.8397 22.0939 60.867 22.7875C60.9607 22.852 61.0569 22.9202 61.1493 22.9884V22.9946C61.1689 23.0122 61.1866 23.0317 61.2023 23.0529C61.3297 23.2163 61.3989 23.418 61.3989 23.6257C61.3989 23.8334 61.3297 24.0351 61.2023 24.1986L61.0273 24.3685L59.7601 25.6184L59.6097 25.7635L59.6023 25.7709C59.4689 25.871 59.3114 25.9333 59.146 25.9514C58.9806 25.9695 58.8134 25.9427 58.6618 25.8739C58.6088 25.8391 58.5533 25.8069 58.4966 25.7759C58.0586 25.5364 57.5689 25.4087 57.0704 25.4039C56.6606 25.3924 56.2527 25.4631 55.8703 25.6119C55.488 25.7606 55.1389 25.9844 54.8434 26.2702C54.5479 26.556 54.312 26.8982 54.1492 27.2767C53.9865 27.6552 53.9003 28.0624 53.8957 28.4748C53.891 28.8871 53.968 29.2963 54.1221 29.6784C54.2762 30.0605 54.5044 30.4079 54.7933 30.7005C55.0823 30.993 55.4262 31.2247 55.8051 31.3821C56.184 31.5396 56.5902 31.6196 57.0001 31.6175C57.4958 31.6266 57.9863 31.5138 58.4288 31.2889C58.4959 31.2564 58.5613 31.2204 58.6248 31.1811C58.7807 31.1163 58.9516 31.097 59.1179 31.1252C59.3124 31.1552 59.4915 31.2494 59.627 31.3931C59.6313 31.3983 59.6363 31.4028 59.6418 31.4067L60.9188 32.7199L61.1284 32.9369C61.2449 33.1074 61.3021 33.3118 61.2911 33.5184C61.2898 33.5519 61.2874 33.5842 61.2824 33.6176Z" fill="#135934"/>
<path d="M111.953 33.8582H111.557V35.0399H111.276V33.8582H110.885V33.6412H111.955V33.8582H111.953Z" fill="#135934"/>
<path d="M112.83 34.6741H112.838L113.197 33.6425H113.566V35.0412H113.283V34.0876L112.94 35.0449H112.74L112.395 34.0851V35.0437H112.112V33.6425H112.482L112.83 34.6741Z" fill="#135934"/>
<path d="M110.226 20.0446C110.199 20.0374 110.171 20.0321 110.143 20.0285L107.283 19.7991C107.079 19.7867 106.877 19.8479 106.713 19.9717C106.549 20.0955 106.435 20.2739 106.39 20.4749C106.382 20.5055 106.376 20.5365 106.371 20.5679L106.026 32.6132C106.427 32.5025 106.845 32.4697 107.259 32.5165C107.669 32.563 108.067 32.6858 108.432 32.8786L110.885 20.832V20.8221C110.87 20.6393 110.798 20.466 110.68 20.3265C110.562 20.187 110.403 20.0884 110.226 20.0446Z" fill="#135934"/>
<path d="M107.133 33.6548C106.699 33.6076 106.26 33.6908 105.873 33.894C105.486 34.0972 105.167 34.4113 104.957 34.7966C104.747 35.1819 104.655 35.6212 104.693 36.0589C104.732 36.4966 104.898 36.9132 105.171 37.256C105.444 37.5988 105.812 37.8525 106.229 37.985C106.645 38.1176 107.091 38.123 107.511 38.0007C107.93 37.8783 108.304 37.6337 108.586 37.2976C108.867 36.9616 109.043 36.5492 109.092 36.1125C109.124 35.8217 109.099 35.5273 109.018 35.2462C108.937 34.9651 108.802 34.7029 108.62 34.4745C108.438 34.2462 108.213 34.0563 107.958 33.9156C107.702 33.7749 107.422 33.6863 107.133 33.6548Z" fill="#F16623"/>
</svg>
